<svg width="20" height="20" viewBox="0 0 20 20" fill="none" xmlns="http://www.w3.org/2000/svg">
<path d="M10.625 5.625H6.25C6.08424 5.625 5.92527 5.55915 5.80806 5.44194C5.69085 5.32473 5.625 5.16576 5.625 5C5.625 4.83424 5.69085 4.67527 5.80806 4.55806C5.92527 4.44085 6.08424 4.375 6.25 4.375H10.625C10.7908 4.375 10.9497 4.44085 11.0669 4.55806C11.1842 4.67527 11.25 4.83424 11.25 5C11.25 5.16576 11.1842 5.32473 11.0669 5.44194C10.9497 5.55915 10.7908 5.625 10.625 5.625ZM12.5 8.75H6.25C6.08424 8.75 5.92527 8.68415 5.80806 8.56694C5.69085 8.44973 5.625 8.29076 5.625 8.125C5.625 7.95924 5.69085 7.80027 5.80806 7.68306C5.92527 7.56585 6.08424 7.5 6.25 7.5H12.5C12.6658 7.5 12.8247 7.56585 12.9419 7.68306C13.0592 7.80027 13.125 7.95924 13.125 8.125C13.125 8.29076 13.0592 8.44973 12.9419 8.56694C12.8247 8.68415 12.6658 8.75 12.5 8.75ZM9.9125 11.25H6.25C6.08424 11.25 5.92527 11.1842 5.80806 11.0669C5.69085 10.9497 5.625 10.7908 5.625 10.625C5.625 10.4592 5.69085 10.3003 5.80806 10.1831C5.92527 10.0658 6.08424 10 6.25 10H9.9125C10.0783 10 10.2372 10.0658 10.3544 10.1831C10.4717 10.3003 10.5375 10.4592 10.5375 10.625C10.5375 10.7908 10.4717 10.9497 10.3544 11.0669C10.2372 11.1842 10.0783 11.25 9.9125 11.25ZM8.4125 13.75H6.25C6.08424 13.75 5.92527 13.6842 5.80806 13.5669C5.69085 13.4497 5.625 13.2908 5.625 13.125C5.625 12.9592 5.69085 12.8003 5.80806 12.6831C5.92527 12.5658 6.08424 12.5 6.25 12.5H8.4125C8.57826 12.5 8.73723 12.5658 8.85444 12.6831C8.97165 12.8003 9.0375 12.9592 9.0375 13.125C9.0375 13.2908 8.97165 13.4497 8.85444 13.5669C8.73723 13.6842 8.57826 13.75 8.4125 13.75Z" fill="white"/>
<path d="M8.4125 17.5H5.625C3.90188 17.5 2.5 16.0981 2.5 14.375V3.75C2.5 2.02688 3.90188 0.625 5.625 0.625H13.125C14.8481 0.625 16.25 2.02688 16.25 3.75V8.875C16.25 9.04076 16.1842 9.19973 16.0669 9.31694C15.9497 9.43415 15.7908 9.5 15.625 9.5C15.4592 9.5 15.3003 9.43415 15.1831 9.31694C15.0658 9.19973 15 9.04076 15 8.875V3.75C15 2.71625 14.1587 1.875 13.125 1.875H5.625C4.59125 1.875 3.75 2.71625 3.75 3.75V14.375C3.75 15.4087 4.59125 16.25 5.625 16.25H8.4125C8.57826 16.25 8.73723 16.3158 8.85444 16.4331C8.97165 16.5503 9.0375 16.7092 9.0375 16.875C9.0375 17.0408 8.97165 17.1997 8.85444 17.3169C8.73723 17.4342 8.57826 17.5 8.4125 17.5Z" fill="white"/>
<path d="M14.375 19.375C11.9631 19.375 10 17.4125 10 15C10 12.5875 11.9631 10.625 14.375 10.625C16.7869 10.625 18.75 12.5875 18.75 15C18.75 17.4125 16.7869 19.375 14.375 19.375ZM14.375 11.875C12.6519 11.875 11.25 13.2769 11.25 15C11.25 16.7231 12.6519 18.125 14.375 18.125C16.0981 18.125 17.5 16.7231 17.5 15C17.5 13.2769 16.0981 11.875 14.375 11.875Z" fill="white"/>
<path d="M13.958 16.5831C13.8759 16.5832 13.7947 16.5671 13.7188 16.5357C13.643 16.5042 13.5741 16.4581 13.5162 16.4L12.683 15.5669C12.625 15.5089 12.579 15.44 12.5476 15.3642C12.5162 15.2883 12.5 15.2071 12.5 15.125C12.5 15.043 12.5162 14.9617 12.5476 14.8859C12.579 14.8101 12.625 14.7412 12.683 14.6831C12.7411 14.6251 12.8099 14.5791 12.8858 14.5477C12.9616 14.5163 13.0428 14.5001 13.1249 14.5001C13.207 14.5001 13.2882 14.5163 13.364 14.5477C13.4399 14.5791 13.5088 14.6251 13.5668 14.6831L13.958 15.0744L15.183 13.85C15.2411 13.792 15.3099 13.746 15.3858 13.7146C15.4616 13.6832 15.5428 13.667 15.6249 13.667C15.707 13.667 15.7882 13.6832 15.864 13.7146C15.9399 13.746 16.0088 13.792 16.0668 13.85C16.1248 13.9081 16.1708 13.9769 16.2022 14.0528C16.2336 14.1286 16.2498 14.2098 16.2498 14.2919C16.2498 14.374 16.2336 14.4552 16.2022 14.531C16.1708 14.6069 16.1248 14.6757 16.0668 14.7338L14.3999 16.4006C14.3419 16.4588 14.2731 16.5049 14.1972 16.5363C14.1214 16.5677 14.0401 16.5832 13.958 16.5831Z" fill="white"/>
</svg>
