<svg width="56" height="58" viewBox="0 0 56 58" fill="none" xmlns="http://www.w3.org/2000/svg">
<path d="M13.3334 0C11.6834 0 10.3334 1.35 10.3334 3V45C10.3334 46.65 11.6834 48 13.3334 48H43.3334C44.9834 48 46.3334 46.65 46.3334 45V12L34.3334 0H13.3334Z" fill="#E2E5E7"/>
<path d="M37.3335 12H46.3335L34.3335 0V9C34.3335 10.65 35.6835 12 37.3335 12Z" fill="#B0B7BD"/>
<path d="M46.3335 21L37.3335 12H46.3335V21Z" fill="#CAD1D8"/>
<rect x="29.3333" y="34" width="24" height="24" rx="12" fill="#2C2E30"/>
<path fill-rule="evenodd" clip-rule="evenodd" d="M40.9798 40.9798C41.175 40.7846 41.4916 40.7846 41.6869 40.9798L45.0202 44.3132C45.2155 44.5084 45.2155 44.825 45.0202 45.0203C44.825 45.2155 44.5084 45.2155 44.3131 45.0203L41.8333 42.5405V48C41.8333 48.2762 41.6095 48.5 41.3333 48.5C41.0572 48.5 40.8333 48.2762 40.8333 48V42.5405L38.3536 45.0203C38.1583 45.2155 37.8417 45.2155 37.6464 45.0203C37.4512 44.825 37.4512 44.5084 37.6464 44.3132L40.9798 40.9798ZM37.5 50.6667C37.5 50.3906 37.7239 50.1667 38 50.1667H44.6667C44.9428 50.1667 45.1667 50.3906 45.1667 50.6667C45.1667 50.9428 44.9428 51.1667 44.6667 51.1667H38C37.7239 51.1667 37.5 50.9428 37.5 50.6667Z" fill="white"/>
</svg>
