<svg width="101" height="16" viewBox="0 0 101 16" fill="none" xmlns="http://www.w3.org/2000/svg">
<path d="M8.74387 9.90171L8.71768 12.5292C8.71776 12.5561 8.70847 12.5822 8.69141 12.603C8.67435 12.6238 8.65058 12.638 8.62418 12.6432C6.39879 13.1145 4.23324 12.748 3.65165 10.186C3.30381 8.64876 3.24023 5.98952 4.22202 4.57948C5.60775 2.58598 8.45962 3.31717 10.21 4.37938C10.2357 4.39451 10.2652 4.40203 10.295 4.40103C10.3248 4.40004 10.3537 4.39058 10.3783 4.37377C11.1475 3.84017 11.6207 3.11022 11.7977 2.18391C11.8114 2.11409 11.7877 2.05986 11.7266 2.02121C9.52182 0.646704 6.62507 0.0875508 4.1547 1.05625C0.545451 2.47003 -0.385845 6.6029 0.177048 10.0495C0.771733 13.6811 2.98029 15.4203 6.59889 15.4035C8.35053 15.396 10.066 15.1298 11.7453 14.605C11.8039 14.5875 11.8339 14.5476 11.8351 14.4853C11.8713 11.5231 11.87 9.5757 11.8314 8.64315C11.7827 7.43321 10.6196 7.01432 9.58914 7.00871C8.54938 7.00247 7.50899 7.0031 6.46798 7.01058C6.4044 7.01058 6.36326 7.0405 6.34456 7.10034C6.21116 7.51674 6.15007 7.98426 6.16129 8.5029C6.19308 9.94099 7.47221 9.82878 8.65223 9.81008C8.71457 9.80884 8.74511 9.83938 8.74387 9.90171Z" fill="#2563EB"/>
<path d="M67.0584 3.70615L67.0566 15.0014C67.0566 15.06 67.0853 15.0937 67.1426 15.1024C68.2011 15.2707 69.2595 15.2695 70.318 15.0987C70.3753 15.0899 70.404 15.0569 70.404 14.9995L70.3928 3.73046C70.3928 3.67187 70.4221 3.64257 70.4807 3.64257C71.1926 3.63758 71.9019 3.63945 72.6088 3.64818C74.1722 3.66688 74.2508 2.12968 73.8824 0.960877C73.8661 0.908515 73.8306 0.882335 73.7758 0.882335H63.6755C63.6069 0.882335 63.567 0.91662 63.5558 0.985189C63.4187 1.83794 63.4218 2.6907 63.5651 3.54345C63.5692 3.57043 63.5829 3.59508 63.6038 3.61292C63.6247 3.63076 63.6515 3.64062 63.6792 3.6407H66.993C67.0366 3.6407 67.0584 3.66252 67.0584 3.70615Z" fill="#2563EB"/>
<path d="M8.65223 9.81008C7.47221 9.82878 6.19308 9.94099 6.16129 8.5029C6.15007 7.98426 6.21116 7.51674 6.34456 7.10034C6.36326 7.0405 6.4044 7.01058 6.46798 7.01058C7.50899 7.0031 8.54938 7.00247 9.58914 7.00871C10.6196 7.01432 11.7827 7.43321 11.8314 8.64315C11.87 9.5757 11.8713 11.5231 11.8351 14.4853C11.8339 14.5476 11.8039 14.5875 11.7453 14.605C10.066 15.1298 8.35053 15.396 6.59889 15.4035C2.98029 15.4203 0.771733 13.6811 0.177048 10.0495C-0.385845 6.6029 0.545451 2.47003 4.1547 1.05625C6.62507 0.0875508 9.52182 0.646704 11.7266 2.02121C11.7877 2.05986 11.8114 2.11409 11.7977 2.18391C11.6207 3.11022 11.1475 3.84017 10.3783 4.37377C10.3537 4.39058 10.3248 4.40004 10.295 4.40103C10.2652 4.40203 10.2357 4.39451 10.21 4.37938C8.45962 3.31717 5.60775 2.58598 4.22202 4.57948C3.24023 5.98952 3.30381 8.64876 3.65165 10.186C4.23324 12.748 6.39879 13.1145 8.62418 12.6432C8.65058 12.638 8.67435 12.6238 8.69141 12.603C8.70847 12.5822 8.71776 12.5561 8.71768 12.5292L8.74387 9.90171C8.74511 9.83938 8.71457 9.80884 8.65223 9.81008Z" fill="#2563EB"/>
<path d="M78.3593 15.0519C74.636 13.7391 74.1124 9.63803 74.5275 6.25881C74.7445 4.51028 75.5168 2.74867 76.9455 1.6659C78.6473 0.375544 81.4113 0.297001 83.3038 1.0843C87.7078 2.91511 87.8219 11.3735 84.5193 14.1019C82.8531 15.4783 80.3883 15.7663 78.3593 15.0519ZM81.3851 3.2405C78.9054 2.58598 78.1386 4.65428 77.9591 6.58607C77.7777 8.54217 77.6637 12.7704 80.4931 12.8433C83.8218 12.9275 83.4852 7.67072 83.1336 5.64916C82.9578 4.63184 82.4604 3.52288 81.3851 3.2405Z" fill="#2563EB"/>
<path d="M22.3075 9.14433C23.4125 9.69069 23.7456 10.7568 24.0817 11.8322C24.361 12.7262 24.6424 13.6266 25.3707 14.2403C25.3814 14.2493 25.3901 14.2604 25.3962 14.2729C25.4023 14.2855 25.4057 14.2992 25.4062 14.3133C25.4067 14.3273 25.4044 14.3414 25.3992 14.3546C25.3941 14.3678 25.3863 14.3798 25.3763 14.3899C24.3478 15.3941 22.2178 15.8691 21.5333 14.1543C21.1319 13.1494 20.751 12.1352 20.3907 11.1117C19.9737 9.93164 19.0349 9.83065 17.8941 9.92416C17.843 9.9279 17.8175 9.95532 17.8175 10.0064V14.9995C17.8175 15.0594 17.7882 15.0937 17.7296 15.1024C16.6823 15.2695 15.6351 15.2701 14.5879 15.1043C14.5293 15.0943 14.5 15.0594 14.5 14.9995V1.03007C14.4999 0.982548 14.5181 0.936822 14.5508 0.902359C14.5836 0.867896 14.6283 0.847336 14.6757 0.844935C16.274 0.765145 17.8979 0.735848 19.5473 0.757042C21.509 0.779483 23.5175 1.32741 24.3478 3.26668C25.2828 5.44719 24.4824 7.99237 22.3075 9.04896C22.2439 9.08013 22.2439 9.11192 22.3075 9.14433ZM17.8175 3.31157V7.26491C17.8175 7.27681 17.8222 7.28823 17.8306 7.29664C17.839 7.30506 17.8504 7.30979 17.8624 7.30979H19.5136C19.9903 7.30979 20.4474 7.12971 20.7844 6.80916C21.1214 6.48862 21.3108 6.05386 21.3108 5.60054V4.97593C21.3108 4.52261 21.1214 4.08786 20.7844 3.76731C20.4474 3.44676 19.9903 3.26668 19.5136 3.26668H17.8624C17.8504 3.26668 17.839 3.27141 17.8306 3.27983C17.8222 3.28825 17.8175 3.29966 17.8175 3.31157Z" fill="#2563EB"/>
<path d="M29.9187 12.2281L29.1071 14.9734C29.061 15.1305 28.9569 15.2115 28.7948 15.2165C28.6836 15.2198 28.5734 15.2236 28.464 15.2274C27.6483 15.2558 26.881 15.2826 26.1225 15.0781C26.0912 15.0695 26.0621 15.0548 26.0367 15.0346C26.0113 15.0145 25.9903 14.9894 25.975 14.9609C25.9596 14.9324 25.9501 14.9011 25.9472 14.8688C25.9443 14.8366 25.9479 14.8041 25.9579 14.7733L30.4929 0.968358C30.5103 0.913502 30.5477 0.882334 30.6051 0.874854C31.8306 0.710287 33.0561 0.709663 34.2816 0.872983C34.3464 0.88171 34.3888 0.917242 34.4088 0.979578L38.8521 14.8107C38.8708 14.8718 38.8515 14.9148 38.7941 14.9397C37.687 15.4128 35.8113 15.6298 35.2241 14.2347C35.0297 13.7746 34.8271 13.112 34.6164 12.2468C34.6002 12.177 34.5565 12.1421 34.4855 12.1421H30.0347C29.9748 12.1421 29.9362 12.1707 29.9187 12.2281ZM30.7846 9.4155C30.7823 9.42359 30.7819 9.43211 30.7834 9.44039C30.7849 9.44866 30.7884 9.45647 30.7935 9.46318C30.7986 9.46989 30.8051 9.47533 30.8127 9.47907C30.8202 9.4828 30.8285 9.48472 30.8369 9.48469H33.7206C33.7892 9.48469 33.8141 9.45165 33.7954 9.38557L32.3573 4.06894C32.3099 3.89316 32.2626 3.89316 32.2152 4.06894L30.7846 9.4155Z" fill="#2563EB"/>
<path d="M43.9724 10.747V14.9846C43.9724 15.0532 43.9387 15.093 43.8714 15.1043C42.8216 15.2688 41.7719 15.2688 40.7222 15.1043C40.6623 15.0955 40.6324 15.0606 40.6324 14.9995V1.02259C40.6323 0.978536 40.6492 0.936133 40.6794 0.904124C40.7097 0.872115 40.7511 0.852938 40.7951 0.850544C42.447 0.762027 44.107 0.728364 45.7751 0.749558C48.2455 0.77948 50.2465 2.11098 50.656 4.66737C50.8979 6.18463 50.6529 7.50303 49.9211 8.62258C48.6292 10.5958 46.5906 10.6227 44.5564 10.6496C44.3909 10.6518 44.2253 10.654 44.0603 10.6572C44.0017 10.6572 43.9724 10.6872 43.9724 10.747ZM43.9724 3.32653V8.07652C43.9724 8.08793 43.9769 8.09887 43.985 8.10693C43.993 8.115 44.004 8.11953 44.0154 8.11953H45.3282C45.8554 8.11953 46.361 7.90379 46.7338 7.51976C47.1066 7.13574 47.316 6.61489 47.316 6.0718V5.33125C47.316 4.78815 47.1066 4.26731 46.7338 3.88328C46.361 3.49926 45.8554 3.28351 45.3282 3.28351H44.0154C44.004 3.28351 43.993 3.28804 43.985 3.29611C43.9769 3.30418 43.9724 3.31512 43.9724 3.32653Z" fill="#2563EB"/>
<path d="M54.2596 12.2225L53.4219 15.065C53.4056 15.1223 53.3682 15.1548 53.3096 15.1622C52.3684 15.2981 51.4321 15.2801 50.5008 15.108C50.4642 15.1012 50.4295 15.0865 50.399 15.0651C50.3685 15.0436 50.343 15.0159 50.324 14.9837C50.3051 14.9515 50.2932 14.9155 50.2892 14.8783C50.2852 14.841 50.2891 14.8033 50.3007 14.7677L54.8319 0.972099C54.8493 0.915997 54.888 0.883584 54.9478 0.874857C56.1696 0.709043 57.3926 0.709043 58.6169 0.874857C58.6855 0.883584 58.7304 0.92161 58.7516 0.988933L63.1855 14.7994C63.208 14.868 63.1861 14.916 63.1201 14.9434C62.4256 15.2414 61.6938 15.3418 60.9246 15.2445C59.6532 15.0852 59.3496 13.8563 59.0806 12.7674L59.0804 12.7664C59.0337 12.5775 58.988 12.3929 58.9386 12.2187C58.9236 12.1689 58.8899 12.1439 58.8376 12.1439L54.37 12.1402C54.3126 12.1402 54.2759 12.1676 54.2596 12.2225ZM55.1105 9.4529C55.1097 9.45682 55.1096 9.46088 55.1105 9.46478C55.1113 9.46867 55.1129 9.4723 55.1153 9.47537C55.1176 9.47845 55.1206 9.48088 55.124 9.4825C55.1274 9.48412 55.1311 9.48486 55.1348 9.48469H58.1176C58.123 9.48459 58.1283 9.48327 58.1332 9.4808C58.1351 9.47983 58.1369 9.4787 58.1385 9.47741C58.1411 9.47543 58.1435 9.4731 58.1454 9.47048C58.1487 9.46615 58.1509 9.46114 58.1519 9.45582L58.1525 9.45048C58.1526 9.44689 58.1522 9.44329 58.1513 9.43981L56.7094 4.11383C56.6546 3.91186 56.6004 3.91186 56.5467 4.11383L55.1105 9.4529Z" fill="#2563EB"/>
<path d="M96.9123 9.11815C98.0512 9.66867 98.3861 10.741 98.7245 11.8248C99.0046 12.7217 99.2871 13.6264 100.03 14.2496C100.032 14.2519 100.035 14.2543 100.037 14.2568L100.041 14.2614C100.044 14.2657 100.047 14.2704 100.05 14.2753C100.054 14.2852 100.057 14.2959 100.057 14.3068C100.058 14.3177 100.056 14.3286 100.052 14.3387C100.047 14.3488 100.041 14.358 100.034 14.3656C99.0629 15.3324 97.0077 15.8916 96.2578 14.2833C96.0434 13.822 95.67 12.8178 95.1376 11.2706C94.7075 10.0195 93.8024 9.81008 92.5438 9.92603C92.494 9.92977 92.469 9.95719 92.469 10.0083L92.4672 15.0033C92.4672 15.0606 92.4391 15.0937 92.383 15.1024C91.3383 15.2682 90.2923 15.2695 89.245 15.1061C89.2195 15.1021 89.1963 15.089 89.1795 15.0691C89.1627 15.0493 89.1535 15.0239 89.1534 14.9977V1.02259C89.1534 0.979031 89.1702 0.937105 89.2005 0.905447C89.2307 0.873788 89.2721 0.854806 89.3161 0.852411C91.0191 0.756414 92.7433 0.723377 94.4887 0.753298C96.4878 0.786959 98.4907 1.57239 99.1172 3.68932C99.6956 5.64666 99.2369 7.27239 97.7408 8.56648C97.4865 8.7859 97.2128 8.93925 96.9198 9.02652C96.91 9.02903 96.9012 9.03453 96.8947 9.04227C96.8882 9.05 96.8842 9.05958 96.8834 9.06967C96.8826 9.07975 96.8849 9.08985 96.8901 9.09854C96.8933 9.10395 96.8976 9.10865 96.9025 9.11241C96.9056 9.11469 96.9089 9.11662 96.9123 9.11815ZM92.456 3.32653L92.4784 7.26865C92.4784 7.27432 92.4794 7.2799 92.4813 7.28514C92.4837 7.2918 92.4875 7.29792 92.4926 7.30303C92.5018 7.31215 92.5141 7.31727 92.527 7.31727L94.1951 7.30792C94.6653 7.30538 95.1152 7.12171 95.4459 6.79731C95.7766 6.47291 95.961 6.03435 95.9586 5.5781L95.9549 4.97968C95.9537 4.75372 95.9066 4.53021 95.8164 4.32193C95.7262 4.11364 95.5946 3.92465 95.4291 3.76575C95.2636 3.60686 95.0675 3.48117 94.8519 3.39586C94.6363 3.31055 94.4055 3.26729 94.1727 3.26855L92.5046 3.2779C92.4917 3.2779 92.4793 3.28303 92.4702 3.29215C92.4611 3.30126 92.456 3.31363 92.456 3.32653Z" fill="#2563EB"/>
<path d="M66.993 3.6407H63.6792C63.6515 3.64062 63.6247 3.63076 63.6038 3.61292C63.5829 3.59508 63.5692 3.57043 63.5651 3.54345C63.4218 2.6907 63.4187 1.83794 63.5558 0.985189C63.567 0.91662 63.6069 0.882335 63.6755 0.882335H73.7758C73.8306 0.882335 73.8661 0.908515 73.8824 0.960877C74.2508 2.12968 74.1722 3.66688 72.6088 3.64818C71.9019 3.63945 71.1926 3.63758 70.4807 3.64257C70.4221 3.64257 70.3928 3.67187 70.3928 3.73046L70.404 14.9995C70.404 15.0569 70.3753 15.0899 70.318 15.0987C69.2595 15.2695 68.2011 15.2707 67.1426 15.1024C67.0853 15.0937 67.0566 15.06 67.0566 15.0014L67.0584 3.70615C67.0584 3.66252 67.0366 3.6407 66.993 3.6407Z" fill="#2563EB"/>
<path fill-rule="evenodd" clip-rule="evenodd" d="M24.3478 3.26668C25.2828 5.44719 24.4824 7.99237 22.3075 9.04896C22.2439 9.08013 22.2439 9.11192 22.3075 9.14433C23.4125 9.69069 23.7456 10.7568 24.0817 11.8322C24.361 12.7262 24.6424 13.6266 25.3707 14.2403C25.3814 14.2493 25.3901 14.2604 25.3962 14.2729C25.4023 14.2855 25.4057 14.2992 25.4062 14.3133C25.4067 14.3273 25.4044 14.3414 25.3992 14.3546C25.3941 14.3678 25.3863 14.3798 25.3763 14.3899C24.3478 15.3941 22.2178 15.8691 21.5333 14.1543C21.1319 13.1494 20.751 12.1352 20.3907 11.1117C19.9737 9.93164 19.0349 9.83065 17.8941 9.92416C17.843 9.9279 17.8175 9.95532 17.8175 10.0064V14.9995C17.8175 15.0594 17.7882 15.0937 17.7296 15.1024C16.6823 15.2695 15.6351 15.2701 14.5879 15.1043C14.5293 15.0943 14.5 15.0594 14.5 14.9995V1.03007C14.4999 0.982548 14.5181 0.936822 14.5508 0.902359C14.5836 0.867896 14.6283 0.847336 14.6757 0.844935C16.274 0.765145 17.8979 0.735848 19.5473 0.757042C21.509 0.779483 23.5175 1.32741 24.3478 3.26668ZM17.8175 7.26491V3.31157C17.8175 3.29966 17.8222 3.28825 17.8306 3.27983C17.839 3.27141 17.8504 3.26668 17.8624 3.26668H19.5136C19.9903 3.26668 20.4474 3.44676 20.7844 3.76731C21.1214 4.08786 21.3108 4.52261 21.3108 4.97593V5.60054C21.3108 6.05386 21.1214 6.48862 20.7844 6.80916C20.4474 7.12971 19.9903 7.30979 19.5136 7.30979H17.8624C17.8504 7.30979 17.839 7.30506 17.8306 7.29664C17.8222 7.28823 17.8175 7.27681 17.8175 7.26491Z" fill="#2563EB"/>
<path fill-rule="evenodd" clip-rule="evenodd" d="M34.4855 12.1421H30.0347C29.9748 12.1421 29.9362 12.1707 29.9187 12.2281L29.1071 14.9734C29.061 15.1305 28.9569 15.2115 28.7948 15.2165C28.6836 15.2198 28.5734 15.2236 28.464 15.2274C27.6483 15.2558 26.881 15.2826 26.1225 15.0781C26.0912 15.0695 26.0621 15.0548 26.0367 15.0346C26.0113 15.0145 25.9903 14.9894 25.975 14.9609C25.9596 14.9324 25.9501 14.9011 25.9472 14.8688C25.9443 14.8366 25.9479 14.8041 25.9579 14.7733L30.4929 0.968358C30.5103 0.913502 30.5477 0.882334 30.6051 0.874854C31.8306 0.710287 33.0561 0.709663 34.2816 0.872983C34.3464 0.88171 34.3888 0.917242 34.4088 0.979578L38.8521 14.8107C38.8708 14.8718 38.8515 14.9148 38.7941 14.9397C37.687 15.4128 35.8113 15.6298 35.2241 14.2347C35.0297 13.7746 34.8271 13.112 34.6164 12.2468C34.6002 12.177 34.5565 12.1421 34.4855 12.1421ZM30.7834 9.44039C30.7819 9.43211 30.7823 9.42359 30.7846 9.4155L32.2152 4.06894C32.2626 3.89316 32.3099 3.89316 32.3573 4.06894L33.7954 9.38557C33.8141 9.45165 33.7892 9.48469 33.7206 9.48469H30.8369C30.8285 9.48472 30.8202 9.4828 30.8127 9.47907C30.8051 9.47533 30.7986 9.46989 30.7935 9.46318C30.7884 9.45647 30.7849 9.44866 30.7834 9.44039Z" fill="#2563EB"/>
<path fill-rule="evenodd" clip-rule="evenodd" d="M44.5564 10.6496C44.3909 10.6518 44.2253 10.654 44.0603 10.6572C44.0017 10.6572 43.9724 10.6872 43.9724 10.747V14.9846C43.9724 15.0532 43.9387 15.093 43.8714 15.1043C42.8216 15.2688 41.7719 15.2688 40.7222 15.1043C40.6623 15.0955 40.6324 15.0606 40.6324 14.9995V1.02259C40.6323 0.978536 40.6492 0.936133 40.6794 0.904124C40.7097 0.872115 40.7511 0.852938 40.7951 0.850544C42.447 0.762027 44.107 0.728364 45.7751 0.749558C48.2455 0.77948 50.2465 2.11098 50.656 4.66737C50.8979 6.18463 50.6529 7.50303 49.9211 8.62258C48.6292 10.5958 46.5906 10.6227 44.5564 10.6496ZM43.9724 8.07652V3.32653C43.9724 3.31512 43.9769 3.30418 43.985 3.29611C43.993 3.28804 44.004 3.28351 44.0154 3.28351H45.3282C45.8554 3.28351 46.361 3.49926 46.7338 3.88328C47.1066 4.26731 47.316 4.78815 47.316 5.33125V6.0718C47.316 6.61489 47.1066 7.13574 46.7338 7.51976C46.361 7.90379 45.8554 8.11953 45.3282 8.11953H44.0154C44.004 8.11953 43.993 8.115 43.985 8.10693C43.9769 8.09887 43.9724 8.08793 43.9724 8.07652Z" fill="#2563EB"/>
<path fill-rule="evenodd" clip-rule="evenodd" d="M58.8376 12.1439L54.37 12.1402C54.3126 12.1402 54.2759 12.1676 54.2596 12.2225L53.4219 15.065C53.4056 15.1223 53.3682 15.1548 53.3096 15.1622C52.3684 15.2981 51.4321 15.2801 50.5008 15.108C50.4642 15.1012 50.4295 15.0865 50.399 15.0651C50.3685 15.0436 50.343 15.0159 50.324 14.9837C50.3051 14.9515 50.2932 14.9155 50.2892 14.8783C50.2852 14.841 50.2891 14.8033 50.3007 14.7677L54.8319 0.972099C54.8493 0.915997 54.888 0.883584 54.9478 0.874857C56.1696 0.709043 57.3926 0.709043 58.6169 0.874857C58.6855 0.883584 58.7304 0.92161 58.7516 0.988933L63.1855 14.7994C63.208 14.868 63.1861 14.916 63.1201 14.9434C62.4256 15.2414 61.6938 15.3418 60.9246 15.2445C59.6532 15.0852 59.3496 13.8563 59.0806 12.7674L59.0804 12.7664C59.0337 12.5775 58.988 12.3929 58.9386 12.2187C58.9236 12.1689 58.8899 12.1439 58.8376 12.1439ZM55.1105 9.46478C55.1096 9.46088 55.1097 9.45682 55.1105 9.4529L56.5467 4.11383C56.6004 3.91186 56.6546 3.91186 56.7094 4.11383L58.1513 9.43981C58.1522 9.44329 58.1526 9.44689 58.1525 9.45048L58.1519 9.45582C58.1509 9.46114 58.1487 9.46615 58.1454 9.47048C58.1435 9.4731 58.1411 9.47543 58.1385 9.47741C58.1369 9.4787 58.1351 9.47983 58.1332 9.4808C58.1283 9.48327 58.123 9.48459 58.1176 9.48469H55.1348C55.1311 9.48486 55.1274 9.48412 55.124 9.4825C55.1206 9.48088 55.1176 9.47845 55.1153 9.47537C55.1129 9.4723 55.1113 9.46867 55.1105 9.46478Z" fill="#2563EB"/>
<path fill-rule="evenodd" clip-rule="evenodd" d="M78.3593 15.0519C74.636 13.7391 74.1124 9.63803 74.5275 6.25881C74.7445 4.51028 75.5168 2.74867 76.9455 1.6659C78.6473 0.375544 81.4113 0.297001 83.3038 1.0843C87.7078 2.91511 87.8219 11.3735 84.5193 14.1019C82.8531 15.4783 80.3883 15.7663 78.3593 15.0519ZM77.9591 6.58607C78.1386 4.65428 78.9054 2.58598 81.3851 3.2405C82.4604 3.52288 82.9578 4.63184 83.1336 5.64916C83.4852 7.67072 83.8218 12.9275 80.4931 12.8433C77.6637 12.7704 77.7777 8.54217 77.9591 6.58607Z" fill="#2563EB"/>
<path fill-rule="evenodd" clip-rule="evenodd" d="M96.9025 9.11241C96.9056 9.11469 96.9089 9.11662 96.9123 9.11815C98.0512 9.66867 98.3861 10.741 98.7245 11.8248C99.0046 12.7217 99.2871 13.6264 100.03 14.2496C100.032 14.2519 100.035 14.2543 100.037 14.2568L100.041 14.2614C100.044 14.2657 100.047 14.2704 100.05 14.2753C100.054 14.2852 100.057 14.2959 100.057 14.3068C100.058 14.3177 100.056 14.3286 100.052 14.3387C100.047 14.3488 100.041 14.358 100.034 14.3656C99.0629 15.3324 97.0077 15.8916 96.2578 14.2833C96.0434 13.822 95.67 12.8178 95.1376 11.2706C94.7075 10.0195 93.8024 9.81008 92.5438 9.92603C92.494 9.92977 92.469 9.95719 92.469 10.0083L92.4672 15.0033C92.4672 15.0606 92.4391 15.0937 92.383 15.1024C91.3383 15.2682 90.2923 15.2695 89.245 15.1061C89.2195 15.1021 89.1963 15.089 89.1795 15.0691C89.1627 15.0493 89.1535 15.0239 89.1534 14.9977V1.02259C89.1534 0.979031 89.1702 0.937105 89.2005 0.905447C89.2307 0.873788 89.2721 0.854806 89.3161 0.852411C91.0191 0.756414 92.7433 0.723377 94.4887 0.753298C96.4878 0.786959 98.4907 1.57239 99.1172 3.68932C99.6956 5.64666 99.2369 7.27239 97.7408 8.56648C97.4865 8.7859 97.2128 8.93925 96.9198 9.02652C96.91 9.02903 96.9012 9.03453 96.8947 9.04227C96.8882 9.05 96.8842 9.05958 96.8834 9.06967C96.8826 9.07975 96.8849 9.08985 96.8901 9.09854C96.8933 9.10395 96.8976 9.10865 96.9025 9.11241ZM92.4784 7.26865L92.456 3.32653C92.456 3.31363 92.4611 3.30126 92.4702 3.29215C92.4793 3.28303 92.4917 3.2779 92.5046 3.2779L94.1727 3.26855C94.4055 3.26729 94.6363 3.31055 94.8519 3.39586C95.0675 3.48117 95.2636 3.60686 95.4291 3.76575C95.5946 3.92465 95.7262 4.11364 95.8164 4.32193C95.9066 4.53021 95.9537 4.75372 95.9549 4.97968L95.9586 5.5781C95.961 6.03435 95.7766 6.47291 95.4459 6.79731C95.1152 7.12171 94.6653 7.30538 94.1951 7.30792L92.527 7.31727C92.5141 7.31727 92.5018 7.31215 92.4926 7.30303C92.4875 7.29792 92.4837 7.2918 92.4813 7.28514C92.4794 7.2799 92.4784 7.27432 92.4784 7.26865Z" fill="#2563EB"/>
</svg>
