<svg width="41" height="40" viewBox="0 0 41 40" fill="none" xmlns="http://www.w3.org/2000/svg">
<path d="M16.8869 7.22764C15.6059 6.90412 14.5998 5.29211 14.5904 4.02794C14.5848 3.39211 14.6316 2.79369 14.4221 2.23267C13.7844 0.512195 11.8863 -0.477075 10.1228 0.259736C7.25785 1.45845 7.61691 5.5053 10.5585 6.34123C11.3963 6.57872 12.2977 6.3431 13.1168 6.5619C14.8691 7.02754 16.1893 8.63768 16.0622 10.5115C15.9743 11.7944 15.9574 12.9332 16.8233 13.9786C18.0501 15.4597 19.5 15.9416 21.1731 15.4242C21.8812 15.206 22.4647 14.8401 22.9235 14.3265C23.8286 13.3147 24.0829 12.3012 23.9502 10.8294C23.8978 10.2472 23.9184 9.78591 24.0119 9.44555C24.3373 8.2618 25.1657 7.2613 26.2859 6.75264C27.5762 6.16544 28.9171 6.77882 30.1663 6.04388C31.7708 5.09949 32.4777 2.91898 31.2547 1.32007C29.5791 -0.869791 26.4972 -0.194694 25.6164 2.31121C25.3957 2.93768 25.5322 3.69694 25.4313 4.28788C25.1208 6.13676 24.0137 7.19273 22.11 7.45579C20.2437 7.71386 18.5026 7.63781 16.8869 7.22764Z" fill="#2563EB"/>
<path d="M2.89684 14.5396C4.2489 14.4499 5.38217 14.6425 6.34526 15.5046C7.43925 16.4808 7.48787 17.9151 7.60569 19.2635C7.68984 20.2359 7.58325 21.4178 7.45234 22.2593C7.19926 23.8888 6.3197 24.9098 4.81366 25.3225C4.20589 25.4889 3.44851 25.3786 2.89871 25.4403C1.91131 25.5488 1.00619 26.2688 0.471346 27.071C-0.463692 28.4736 0.0861111 30.4428 1.4681 31.346C3.31386 32.5522 5.86091 31.6303 6.36583 29.4367C6.50982 28.8065 6.38827 27.9705 6.47055 27.402C6.72301 25.676 7.96474 24.3819 9.66464 24.006C10.6894 23.7797 11.675 24.1743 12.7035 23.8601C16.5278 22.6913 16.6681 17.3728 12.7877 16.2021C11.9031 15.9347 11.013 16.0731 10.1434 16.1199C9.59607 16.1485 8.95713 15.931 8.22655 15.4672C7.41245 14.9498 6.8614 14.1762 6.57341 13.1464C6.2798 12.1029 6.69309 10.921 6.13955 9.94486C4.55372 7.15284 0.5742 7.74378 0.0356183 10.9771C-0.196271 12.3666 0.735028 13.6196 1.93001 14.2348C2.35514 14.453 2.67741 14.5546 2.89684 14.5396Z" fill="#2563EB"/>
<path d="M33.5455 11.166C33.8223 13.4868 32.6871 15.5869 30.3009 16.0469C29.7044 16.161 29.0143 16.0806 28.3748 16.0469C26.5664 15.9515 24.9076 17.3541 24.5149 19.0185C23.8567 21.7974 26.1269 24.4193 29.076 23.9349C31.163 23.5946 33.1135 25.1149 33.5025 27.1402C33.6577 27.9444 33.4595 28.7765 33.6858 29.5339C34.7012 32.9113 39.6644 32.5036 40.0085 28.9523C40.1787 27.2131 38.5891 25.358 36.7938 25.4534C35.1388 25.5432 33.4333 24.926 32.8742 23.3028C32.3487 21.7824 32.2907 20.0695 32.4777 18.493C32.5843 17.5991 32.747 16.5219 33.2351 15.9291C33.7288 15.3319 34.4282 14.9118 35.3333 14.6687C35.8981 14.5172 36.5788 14.6144 37.0706 14.577C37.8698 14.5135 38.5841 14.1376 39.2137 13.4494C40.3152 12.2413 40.2684 10.519 39.2362 9.26789C38.0917 7.8803 36.115 7.8616 34.7068 8.89014C34.2094 9.25293 33.4726 10.5582 33.5455 11.166Z" fill="#2563EB"/>
<path d="M13.9378 11.353C13.9378 10.6701 13.6665 10.0151 13.1835 9.53216C12.7006 9.04924 12.0456 8.77793 11.3627 8.77793C11.0245 8.77793 10.6896 8.84454 10.3772 8.97395C10.0648 9.10336 9.78092 9.29304 9.5418 9.53216C9.30268 9.77128 9.113 10.0552 8.98359 10.3676C8.85418 10.68 8.78758 11.0149 8.78758 11.353C8.78758 11.6912 8.85418 12.0261 8.98359 12.3385C9.113 12.6509 9.30268 12.9348 9.5418 13.1739C9.78092 13.413 10.0648 13.6027 10.3772 13.7321C10.6896 13.8615 11.0245 13.9281 11.3627 13.9281C12.0456 13.9281 12.7006 13.6568 13.1835 13.1739C13.6665 12.691 13.9378 12.036 13.9378 11.353Z" fill="#2563EB"/>
<path d="M31.2472 11.3456C31.2472 10.6596 30.9747 10.0018 30.4897 9.51675C30.0046 9.03172 29.3468 8.75924 28.6609 8.75924C27.9749 8.75924 27.3171 9.03172 26.8321 9.51675C26.347 10.0018 26.0746 10.6596 26.0746 11.3456C26.0746 12.0315 26.347 12.6893 26.8321 13.1744C27.3171 13.6594 27.9749 13.9319 28.6609 13.9319C29.3468 13.9319 30.0046 13.6594 30.4897 13.1744C30.9747 12.6893 31.2472 12.0315 31.2472 11.3456Z" fill="#2563EB"/>
<path d="M22.6018 20.0059C22.6018 19.3199 22.3293 18.6621 21.8443 18.1771C21.3593 17.692 20.7014 17.4196 20.0155 17.4196C19.3296 17.4196 18.6717 17.692 18.1867 18.1771C17.7017 18.6621 17.4292 19.3199 17.4292 20.0059C17.4292 20.6918 17.7017 21.3496 18.1867 21.8347C18.6717 22.3197 19.3296 22.5922 20.0155 22.5922C20.7014 22.5922 21.3593 22.3197 21.8443 21.8347C22.3293 21.3496 22.6018 20.6918 22.6018 20.0059Z" fill="#2563EB"/>
<path d="M22.8244 32.7018C24.212 33.0216 24.975 34.0277 25.3434 35.3424C25.5584 36.1054 25.3209 36.9002 25.5509 37.6444C25.9549 38.9572 27.2303 40.04 28.6571 39.9989C31.8082 39.9072 32.992 36.0885 30.5515 34.1941C29.9942 33.7615 29.4407 33.5502 28.8909 33.5602C27.8306 33.5808 27.0881 33.6032 26.2503 33.2311C25.1358 32.7355 24.3279 31.7069 24.0156 30.5419C23.6565 29.1973 24.2868 28.064 23.6079 26.6914C21.8145 23.0597 16.6325 23.9274 16.0341 27.8546C15.9425 28.4605 16.122 29.1505 16.1201 29.7247C16.1189 30.161 16.0179 30.6042 15.8172 31.0543C15.1066 32.6495 13.8368 33.5265 12.1088 33.5639C11.0934 33.5845 10.3809 33.5228 9.51317 34.1287C7.27094 35.6921 7.94978 39.3556 10.6128 39.9278C12.5782 40.3523 14.5867 38.8413 14.5848 36.7524C14.5829 35.3891 14.697 34.499 15.6489 33.5116C15.9493 33.1999 16.324 32.9705 16.7728 32.8234C18.6597 32.2025 20.9599 32.2736 22.8244 32.7018Z" fill="#2563EB"/>
<path d="M13.9378 28.6512C13.9378 27.9683 13.6665 27.3133 13.1835 26.8304C12.7006 26.3475 12.0456 26.0761 11.3627 26.0761C10.6797 26.0761 10.0247 26.3475 9.5418 26.8304C9.05888 27.3133 8.78758 27.9683 8.78758 28.6512C8.78758 28.9894 8.85418 29.3243 8.98359 29.6367C9.113 29.9491 9.30268 30.233 9.5418 30.4721C9.78092 30.7112 10.0648 30.9009 10.3772 31.0303C10.6896 31.1597 11.0245 31.2263 11.3627 31.2263C12.0456 31.2263 12.7006 30.955 13.1835 30.4721C13.6665 29.9892 13.9378 29.3342 13.9378 28.6512Z" fill="#2563EB"/>
<path d="M31.2472 28.6512C31.2472 27.9653 30.9747 27.3075 30.4897 26.8224C30.0046 26.3374 29.3468 26.0649 28.6609 26.0649C27.9749 26.0649 27.3171 26.3374 26.8321 26.8224C26.347 27.3075 26.0746 27.9653 26.0746 28.6512C26.0746 29.3372 26.347 29.995 26.8321 30.48C27.3171 30.9651 27.9749 31.2376 28.6609 31.2376C29.3468 31.2376 30.0046 30.9651 30.4897 30.48C30.9747 29.995 31.2472 29.3372 31.2472 28.6512Z" fill="#2563EB"/>
<path d="M16.8869 7.22764C18.5026 7.63781 20.2437 7.71386 22.11 7.45579C24.0137 7.19273 25.1208 6.13676 25.4313 4.28788C25.5322 3.69694 25.3957 2.93768 25.6164 2.31121C26.4972 -0.194694 29.5791 -0.869791 31.2547 1.32007C32.4777 2.91898 31.7708 5.09949 30.1663 6.04388C28.9171 6.77882 27.5762 6.16544 26.2859 6.75264C25.1657 7.2613 24.3373 8.2618 24.0119 9.44555C23.9184 9.78591 23.8978 10.2472 23.9502 10.8294C24.0829 12.3012 23.8286 13.3147 22.9235 14.3265C22.4647 14.8401 21.8812 15.206 21.1731 15.4242C19.5 15.9416 18.0501 15.4597 16.8233 13.9786C15.9574 12.9332 15.9743 11.7944 16.0622 10.5115C16.1893 8.63768 14.8691 7.02754 13.1168 6.5619C12.2977 6.3431 11.3963 6.57872 10.5585 6.34123C7.61691 5.5053 7.25785 1.45845 10.1228 0.259736C11.8863 -0.477075 13.7844 0.512195 14.4221 2.23267C14.6316 2.79369 14.5848 3.39211 14.5904 4.02794C14.5998 5.29211 15.6059 6.90412 16.8869 7.22764Z" fill="#2563EB"/>
<path d="M6.34526 15.5046C5.38217 14.6425 4.2489 14.4499 2.89684 14.5396C2.67741 14.5546 2.35514 14.453 1.93001 14.2348C0.735028 13.6196 -0.196271 12.3666 0.0356183 10.9771C0.5742 7.74378 4.55372 7.15284 6.13955 9.94486C6.69309 10.921 6.2798 12.1029 6.57341 13.1464C6.8614 14.1762 7.41245 14.9498 8.22655 15.4672C8.95713 15.931 9.59607 16.1485 10.1434 16.1199C11.013 16.0731 11.9031 15.9347 12.7877 16.2021C16.6681 17.3728 16.5278 22.6913 12.7035 23.8601C11.675 24.1743 10.6894 23.7797 9.66464 24.006C7.96474 24.3819 6.72301 25.676 6.47055 27.402C6.38827 27.9705 6.50982 28.8065 6.36583 29.4367C5.86091 31.6303 3.31386 32.5522 1.4681 31.346C0.0861111 30.4428 -0.463692 28.4736 0.471346 27.071C1.00619 26.2688 1.91131 25.5488 2.89871 25.4403C3.44851 25.3786 4.20589 25.4889 4.81366 25.3225C6.3197 24.9098 7.19926 23.8888 7.45234 22.2593C7.58325 21.4178 7.68984 20.2359 7.60569 19.2635C7.48787 17.9151 7.43925 16.4808 6.34526 15.5046Z" fill="#2563EB"/>
<path d="M30.3009 16.0469C32.6871 15.5869 33.8223 13.4868 33.5455 11.166C33.4726 10.5582 34.2094 9.25293 34.7068 8.89014C36.115 7.8616 38.0917 7.8803 39.2362 9.26789C40.2684 10.519 40.3152 12.2413 39.2137 13.4494C38.5841 14.1376 37.8698 14.5135 37.0706 14.577C36.5788 14.6144 35.8981 14.5172 35.3333 14.6687C34.4282 14.9118 33.7288 15.3319 33.2351 15.9291C32.747 16.5219 32.5843 17.5991 32.4777 18.493C32.2907 20.0695 32.3487 21.7824 32.8742 23.3028C33.4333 24.926 35.1388 25.5432 36.7938 25.4534C38.5891 25.358 40.1787 27.2131 40.0085 28.9523C39.6644 32.5036 34.7012 32.9113 33.6858 29.5339C33.4595 28.7765 33.6577 27.9444 33.5025 27.1402C33.1135 25.1149 31.163 23.5946 29.076 23.9349C26.1269 24.4193 23.8567 21.7974 24.5149 19.0185C24.9076 17.3541 26.5664 15.9515 28.3748 16.0469C29.0143 16.0806 29.7044 16.161 30.3009 16.0469Z" fill="#2563EB"/>
<path d="M11.3627 13.9281C12.7849 13.9281 13.9378 12.7752 13.9378 11.353C13.9378 9.93085 12.7849 8.77793 11.3627 8.77793C9.94049 8.77793 8.78758 9.93085 8.78758 11.353C8.78758 12.7752 9.94049 13.9281 11.3627 13.9281Z" fill="#2563EB"/>
<path d="M28.6609 13.9319C30.0893 13.9319 31.2472 12.7739 31.2472 11.3456C31.2472 9.91717 30.0893 8.75924 28.6609 8.75924C27.2325 8.75924 26.0746 9.91717 26.0746 11.3456C26.0746 12.7739 27.2325 13.9319 28.6609 13.9319Z" fill="#2563EB"/>
<path d="M20.0155 22.5922C21.4439 22.5922 22.6018 21.4343 22.6018 20.0059C22.6018 18.5775 21.4439 17.4196 20.0155 17.4196C18.5871 17.4196 17.4292 18.5775 17.4292 20.0059C17.4292 21.4343 18.5871 22.5922 20.0155 22.5922Z" fill="#2563EB"/>
<path d="M22.8244 32.7018C20.9599 32.2736 18.6597 32.2025 16.7728 32.8234C16.324 32.9705 15.9493 33.1999 15.6489 33.5116C14.697 34.499 14.5829 35.3891 14.5848 36.7524C14.5867 38.8413 12.5782 40.3523 10.6128 39.9278C7.94978 39.3556 7.27094 35.6921 9.51317 34.1287C10.3809 33.5228 11.0934 33.5845 12.1088 33.5639C13.8368 33.5265 15.1066 32.6495 15.8172 31.0543C16.0179 30.6042 16.1189 30.161 16.1201 29.7247C16.122 29.1505 15.9425 28.4605 16.0341 27.8546C16.6325 23.9274 21.8145 23.0597 23.6079 26.6914C24.2868 28.064 23.6565 29.1973 24.0156 30.5419C24.3279 31.7069 25.1358 32.7355 26.2503 33.2311C27.0881 33.6032 27.8306 33.5808 28.8909 33.5602C29.4407 33.5502 29.9942 33.7615 30.5515 34.1941C32.992 36.0885 31.8082 39.9072 28.6571 39.9989C27.2303 40.04 25.9549 38.9572 25.5509 37.6444C25.3209 36.9002 25.5584 36.1054 25.3434 35.3424C24.975 34.0277 24.212 33.0216 22.8244 32.7018Z" fill="#2563EB"/>
<path d="M11.3627 31.2263C12.7849 31.2263 13.9378 30.0734 13.9378 28.6512C13.9378 27.2291 12.7849 26.0761 11.3627 26.0761C9.94049 26.0761 8.78758 27.2291 8.78758 28.6512C8.78758 30.0734 9.94049 31.2263 11.3627 31.2263Z" fill="#2563EB"/>
<path d="M28.6609 31.2376C30.0893 31.2376 31.2472 30.0796 31.2472 28.6512C31.2472 27.2229 30.0893 26.0649 28.6609 26.0649C27.2325 26.0649 26.0746 27.2229 26.0746 28.6512C26.0746 30.0796 27.2325 31.2376 28.6609 31.2376Z" fill="#2563EB"/>
</svg>
