<svg width="20" height="20" viewBox="0 0 20 20" fill="none" xmlns="http://www.w3.org/2000/svg">
<path fill-rule="evenodd" clip-rule="evenodd" d="M5.83333 1.75C5.41912 1.75 5.08333 2.08579 5.08333 2.5V4.25H3.33333C2.45888 4.25 1.75 4.95888 1.75 5.83333V14.1667C1.75 15.0411 2.45888 15.75 3.33333 15.75H5.08333V17.5C5.08333 17.9142 5.41912 18.25 5.83333 18.25H14.1667C14.5809 18.25 14.9167 17.9142 14.9167 17.5V15.75H16.6667C17.5411 15.75 18.25 15.0411 18.25 14.1667V5.83333C18.25 4.95888 17.5411 4.25 16.6667 4.25H14.9167V2.5C14.9167 2.08579 14.5809 1.75 14.1667 1.75H5.83333ZM13.4167 4.25H6.58333V3.25H13.4167V4.25ZM3.33333 5.75H5.83333H14.1667H16.6667C16.7127 5.75 16.75 5.78731 16.75 5.83333V14.1667C16.75 14.2127 16.7127 14.25 16.6667 14.25H14.9167V10C14.9167 9.58579 14.5809 9.25 14.1667 9.25H5.83333C5.41912 9.25 5.08333 9.58579 5.08333 10V14.25H3.33333C3.28731 14.25 3.25 14.2127 3.25 14.1667V5.83333C3.25 5.78731 3.28731 5.75 3.33333 5.75ZM6.58333 15V10.75H13.4167V15V16.75H6.58333V15ZM7.5 13.25H12.5V11.75H7.5V13.25ZM7.5 15.75H10.8333V14.25H7.5V15.75ZM15 8.33333C15.4602 8.33333 15.8333 7.96024 15.8333 7.5C15.8333 7.03976 15.4602 6.66667 15 6.66667C14.5398 6.66667 14.1667 7.03976 14.1667 7.5C14.1667 7.96024 14.5398 8.33333 15 8.33333Z" fill="white"/>
</svg>
