<svg width="394" height="394" viewBox="0 0 394 394" fill="none" xmlns="http://www.w3.org/2000/svg">
<g opacity="0.41">
<path d="M22.7045 238.719C22.0638 232.74 21.9149 226.706 22.279 220.705C23.9881 192.508 36.7522 165.327 56.5514 145.577C63.6151 138.531 71.7331 132.123 76.1072 123.085C83.4743 107.864 82.0094 90.8967 91.3401 75.7584C100.681 60.6028 114.789 48.4219 131.05 41.6877C179.531 21.611 250.051 46.3763 246.866 107.418C246.854 107.637 246.846 107.955 246.84 108.357C246.644 121.012 256.868 131.101 269.222 130.746C314.813 129.435 355.802 163.201 366.46 208.161C373.314 237.075 366.083 269.55 346.194 291.316C331.348 307.564 310.819 317.146 290.146 324.078C248.697 337.977 204.588 342.768 161.026 340.604C120.249 338.577 76.8614 328.939 49.0308 298.464C34.1841 282.208 25.0756 260.834 22.7045 238.719Z" fill="#E1EAFE"/>
</g>
<g opacity="0.31">
<path d="M251.548 37.7535C251.67 31.9695 247.177 27.1838 241.512 27.0642C235.847 26.9447 231.156 31.5366 231.034 37.3205C230.912 43.1045 235.405 47.8902 241.07 48.0098C246.735 48.1293 251.426 43.5374 251.548 37.7535Z" fill="#E1EAFE"/>
</g>
<g opacity="0.31">
<path d="M67.4668 37.8233C67.6157 40.8043 70.1034 43.0951 73.023 42.9406C75.9425 42.7862 78.1891 40.2441 78.0394 37.2631C77.8905 34.2821 75.4027 31.9914 72.4832 32.1458C69.5637 32.3002 67.3171 34.8423 67.4668 37.8233Z" fill="#E1EAFE"/>
</g>
<g opacity="0.31">
<path d="M372.008 159.956C372.107 161.929 373.754 163.445 375.686 163.343C377.619 163.241 379.105 161.558 379.007 159.585C378.908 157.612 377.261 156.096 375.328 156.197C373.397 156.301 371.91 157.983 372.008 159.956Z" fill="#E1EAFE"/>
</g>
<g opacity="0.31">
<path d="M355.667 340.286C355.858 331.18 348.782 323.647 339.864 323.46C330.946 323.274 323.562 330.505 323.372 339.611C323.182 348.717 330.257 356.25 339.175 356.436C348.093 356.623 355.477 349.392 355.667 340.286Z" fill="#E1EAFE"/>
</g>
<path opacity="0.47" d="M20.2681 77.2319C15.2123 68.3307 18.1854 56.9244 26.907 51.7551C35.6294 46.5858 52.8582 46.0184 57.9132 54.9197C62.969 63.8209 49.5762 72.3991 44.3809 81.2255C37.1368 93.5348 25.3231 86.1324 20.2681 77.2319Z" fill="#ECF1F7"/>
<path opacity="0.47" d="M73.4873 356.218C67.2203 360.833 58.4806 359.39 53.9661 352.996C49.4517 346.601 47.7354 333.233 54.0024 328.618C60.2694 324.003 67.6797 333.772 74.6598 337.142C84.3948 341.842 79.7542 351.602 73.4873 356.218Z" fill="#E1EAFE"/>
<path opacity="0.47" d="M321.843 19.1721C328.633 12.036 339.798 11.8657 346.781 18.7923C353.765 25.7188 358.773 41.9311 351.984 49.068C345.194 56.2041 333.887 45.7371 324.493 43.1194C311.39 39.4694 315.053 26.309 321.843 19.1721Z" fill="#E1EAFE"/>
<path opacity="0.32" d="M35.474 116.764C30.8894 129.97 29.6381 144.398 32.6065 158.048C36.5969 176.403 50.3436 192.537 48.0001 212.112C46.5935 223.859 46.8441 234.626 46.5612 246.167C45.9796 269.866 62.5379 289.485 81.9629 299.304C97.7394 307.279 115.678 309.382 132.995 307.858C148.58 306.486 163.927 302.395 178.741 297.324C193.017 292.436 206.875 286.363 222.269 286.818C235.07 287.196 246.942 291.955 259.091 295.259C288.098 303.148 322.414 302.026 347.068 284.93C374.093 266.19 385.008 230.63 375.565 199.554C370.499 182.886 363.737 168.439 366.183 150.68C367.386 141.944 369.181 133.052 367.524 124.391C365.999 116.419 361.629 109.246 356.445 103.001C342.469 86.1616 322.574 75.4243 301.891 69.1069C278.429 61.9401 252.379 58.0332 227.981 61.7439C180.587 68.9517 170.274 61.9416 120.732 54.908C87.5435 50.1957 56.3907 76.5835 41.2658 103.807C38.9735 107.932 37.0311 112.278 35.474 116.764Z" fill="#E1EAFE"/>
<g opacity="0.83">
<path opacity="0.81" d="M58.412 154.901C65.2384 145.894 75.7905 139.777 80.9606 129.427C87.1503 117.037 85.8462 102.413 91.374 89.7548C99.5424 71.0501 114.337 55.1624 132.863 46.4377C141.792 42.2329 151.591 39.6751 161.149 40.4087C175.885 41.5387 188.595 50.3107 198.535 60.7872C213.328 76.3785 223.788 98.5221 241.542 111.015C251.339 117.909 262.852 110.595 273.232 108.275C284.971 105.652 297.169 106.267 308.382 109.46C329.035 115.339 346.821 130.133 355.716 149.641C365.212 170.469 363.862 199.263 346.038 217.17C337.791 225.454 326.609 230.99 320.489 240.913C312.809 253.366 311.908 270.197 309.764 284.043C307.396 299.334 300.861 314.231 291.038 326.591C290.927 326.732 290.815 326.871 290.703 327.011C273.637 348.226 244.512 355.38 219.959 344.743C219.959 344.743 167.719 322.111 167.718 322.11C114.711 299.145 74.469 262.139 55.1496 208.509C50.9693 196.903 49.45 172.162 54.7769 160.832C55.7832 158.695 57.0204 156.738 58.412 154.901Z" fill="#E1EAFE"/>
</g>
<path opacity="0.38" d="M302.643 344.648C304.602 344.648 306.189 343.06 306.189 341.102C306.189 339.143 304.602 337.556 302.643 337.556C300.685 337.556 299.097 339.143 299.097 341.102C299.097 343.06 300.685 344.648 302.643 344.648Z" fill="#124BC7"/>
<path opacity="0.38" d="M212.906 31.4105C213.885 31.4105 214.679 30.6167 214.679 29.6375C214.679 28.6583 213.885 27.8645 212.906 27.8645C211.927 27.8645 211.133 28.6583 211.133 29.6375C211.133 30.6167 211.927 31.4105 212.906 31.4105Z" fill="#124BC7"/>
<path opacity="0.38" d="M103.477 353.163C105.435 353.163 107.023 351.575 107.023 349.617C107.023 347.658 105.435 346.071 103.477 346.071C101.519 346.071 99.9309 347.658 99.9309 349.617C99.9309 351.575 101.519 353.163 103.477 353.163Z" fill="#124BC7"/>
<path opacity="0.58" d="M317.087 368.366C318.61 368.366 319.845 367.131 319.845 365.608C319.845 364.084 318.61 362.85 317.087 362.85C315.564 362.85 314.329 364.084 314.329 365.608C314.329 367.131 315.564 368.366 317.087 368.366Z" fill="#EF929C"/>
<path opacity="0.38" d="M45.7504 33.3198C46.4032 33.3198 46.9324 32.7906 46.9324 32.1378C46.9324 31.485 46.4032 30.9558 45.7504 30.9558C45.0976 30.9558 44.5684 31.485 44.5684 32.1378C44.5684 32.7906 45.0976 33.3198 45.7504 33.3198Z" fill="#124BC7"/>
<path opacity="0.58" d="M369.606 65.5453C370.672 63.4491 369.837 60.8854 367.741 59.8191C365.645 58.7527 363.081 59.5876 362.015 61.6838C360.948 63.78 361.783 66.3437 363.879 67.41C365.976 68.4763 368.539 67.6414 369.606 65.5453Z" fill="#EF929C"/>
<path opacity="0.58" d="M59.2157 21.1216C59.0234 22.0238 58.1361 22.5983 57.2339 22.406C56.3316 22.2129 55.7572 21.3257 55.9494 20.4242C56.1417 19.5219 57.029 18.9475 57.9313 19.1397C58.8327 19.332 59.408 20.2193 59.2157 21.1216Z" fill="#EF929C"/>
<path opacity="0.58" d="M228.341 15.7262C228.149 16.6284 227.261 17.2029 226.359 17.0106C225.457 16.8183 224.883 15.9303 225.075 15.0288C225.267 14.1265 226.155 13.5521 227.057 13.7444C227.958 13.9366 228.533 14.8239 228.341 15.7262Z" fill="#EF929C"/>
<path opacity="0.38" d="M345.652 68.1637C345.488 68.9304 344.734 69.419 343.967 69.2551C343.2 69.0912 342.712 68.337 342.875 67.5703C343.039 66.8036 343.793 66.315 344.56 66.4789C345.326 66.6428 345.815 67.397 345.652 68.1637Z" fill="#124BC7"/>
<path opacity="0.38" d="M32.3876 312.764C32.2237 313.531 31.4696 314.02 30.7029 313.856C29.9362 313.692 29.4476 312.938 29.6115 312.171C29.7754 311.404 30.5295 310.916 31.2962 311.08C32.063 311.243 32.5515 311.998 32.3876 312.764Z" fill="#124BC7"/>
<g opacity="0.66">
<path d="M292.445 164.207H286.294C283.712 164.207 281.611 162.106 281.611 159.524V152.604C281.611 151.307 280.791 150.135 279.57 149.687C278.843 149.421 278.12 149.12 277.419 148.796C276.222 148.241 274.799 148.484 273.882 149.402L268.989 154.294C268.105 155.179 266.928 155.666 265.678 155.666C264.427 155.666 263.251 155.179 262.366 154.294L258.016 149.945C256.191 148.12 256.191 145.148 258.016 143.322L262.91 138.43C263.827 137.512 264.07 136.09 263.516 134.891C263.189 134.185 262.889 133.462 262.625 132.74C262.177 131.52 261.004 130.699 259.707 130.699H252.789C250.206 130.699 248.105 128.599 248.105 126.016V119.865C248.105 117.283 250.206 115.182 252.789 115.182H259.707C261.005 115.182 262.178 114.362 262.625 113.141C262.89 112.419 263.19 111.695 263.516 110.991C264.07 109.792 263.828 108.37 262.91 107.453L258.016 102.559C256.191 100.733 256.191 97.7625 258.016 95.9359L262.366 91.5861C264.19 89.7603 267.163 89.7596 268.989 91.5861L273.882 96.4796C274.799 97.3976 276.221 97.6411 277.419 97.0856C278.126 96.7586 278.849 96.4591 279.57 96.1952C280.791 95.7476 281.611 94.5742 281.611 93.2772V86.3578C281.611 83.7755 283.712 81.6747 286.294 81.6747H292.445C295.027 81.6747 297.128 83.7755 297.128 86.3578V93.2772C297.128 94.5742 297.948 95.7468 299.169 96.1952C299.89 96.4591 300.614 96.7586 301.319 97.0856C302.518 97.6411 303.94 97.3976 304.857 96.4796L309.75 91.5861C311.575 89.7603 314.548 89.7596 316.373 91.5861L320.723 95.9359C322.548 97.7617 322.548 100.732 320.723 102.559L315.829 107.453C314.911 108.371 314.668 109.792 315.224 110.99C315.55 111.695 315.85 112.419 316.115 113.141C316.562 114.362 317.736 115.182 319.033 115.182H325.951C328.533 115.182 330.634 117.283 330.634 119.865V126.016C330.634 128.599 328.533 130.699 325.951 130.699H319.033C317.735 130.699 316.563 131.52 316.115 132.74C315.851 133.461 315.55 134.185 315.225 134.891C314.669 136.089 314.912 137.512 315.83 138.43L320.724 143.322C322.549 145.148 322.549 148.119 320.724 149.945L316.374 154.294C315.489 155.179 314.313 155.666 313.062 155.666C311.811 155.666 310.635 155.179 309.751 154.294L304.858 149.402C303.941 148.484 302.518 148.241 301.32 148.796C300.619 149.12 299.896 149.42 299.17 149.687C297.949 150.135 297.129 151.307 297.129 152.604V159.524C297.128 162.106 295.027 164.207 292.445 164.207ZM276.083 146.926C276.759 146.926 277.443 147.07 278.081 147.366C278.743 147.673 279.426 147.956 280.112 148.207C281.951 148.882 283.186 150.649 283.186 152.604V159.524C283.186 161.237 284.58 162.631 286.293 162.631H292.444C294.158 162.631 295.551 161.237 295.551 159.524V152.604C295.551 150.648 296.787 148.882 298.625 148.207C299.311 147.956 299.994 147.672 300.656 147.366C302.451 146.535 304.589 146.905 305.971 148.287L310.863 153.181C312.075 154.393 314.048 154.391 315.258 153.181L319.607 148.832C320.818 147.62 320.818 145.648 319.607 144.437L314.714 139.544C313.33 138.16 312.96 136.024 313.792 134.229C314.1 133.563 314.383 132.879 314.633 132.198C315.307 130.359 317.075 129.123 319.03 129.123H325.949C327.663 129.123 329.056 127.729 329.056 126.016V119.865C329.056 118.152 327.662 116.758 325.949 116.758H319.03C317.074 116.758 315.307 115.522 314.633 113.684C314.383 113.002 314.099 112.318 313.792 111.653C312.959 109.858 313.33 107.722 314.714 106.338L319.607 101.445C320.817 100.233 320.817 98.2621 319.607 97.0501L315.258 92.7004C314.047 91.4884 312.075 91.49 310.863 92.7004L305.971 97.5939C304.588 98.9776 302.451 99.3472 300.656 98.515C299.989 98.2069 299.306 97.9232 298.626 97.6742C296.787 96.9997 295.551 95.2322 295.551 93.2764V86.357C295.551 84.6439 294.158 83.2499 292.444 83.2499H286.293C284.58 83.2499 283.186 84.6439 283.186 86.357V93.2764C283.186 95.2322 281.951 96.9989 280.112 97.6742C279.432 97.9232 278.748 98.2069 278.081 98.515C276.288 99.3472 274.15 98.9776 272.767 97.5931L267.874 92.6996C266.663 91.4876 264.69 91.4892 263.479 92.6996L259.13 97.0493C257.919 98.2613 257.919 100.232 259.13 101.444L264.023 106.338C265.406 107.72 265.776 109.857 264.944 111.653C264.637 112.318 264.354 113.001 264.103 113.683C263.43 115.522 261.661 116.757 259.706 116.757H252.788C251.074 116.757 249.681 118.151 249.681 119.864V126.015C249.681 127.729 251.075 129.123 252.788 129.123H259.706C261.662 129.123 263.43 130.358 264.103 132.197C264.353 132.878 264.637 133.561 264.945 134.229C265.776 136.024 265.406 138.159 264.023 139.543L259.13 144.437C257.918 145.648 257.918 147.619 259.13 148.831L263.479 153.18C264.69 154.391 266.662 154.391 267.874 153.18L272.767 148.287C273.657 147.397 274.861 146.926 276.083 146.926ZM289.37 144.572C277.443 144.572 267.739 134.869 267.739 122.941C267.739 111.014 277.443 101.311 289.37 101.311C301.297 101.311 311 111.014 311 122.941C311 134.869 301.296 144.572 289.37 144.572ZM289.37 102.887C278.312 102.887 269.315 111.883 269.315 122.941C269.315 133.999 278.312 142.996 289.37 142.996C300.428 142.996 309.424 133.999 309.424 122.941C309.424 111.883 300.428 102.887 289.37 102.887Z" fill="white"/>
<g opacity="0.84">
<path d="M280.993 276.646H273.319C271.505 276.646 269.887 275.512 269.263 273.809C268.974 273.02 268.653 272.247 268.303 271.49C267.534 269.832 267.858 267.873 269.15 266.582L274.576 261.155C276.263 259.468 276.263 256.733 274.576 255.046L269.753 250.222C268.066 248.535 265.33 248.535 263.643 250.222L258.217 255.649C256.925 256.942 254.967 257.265 253.308 256.496C252.551 256.146 251.778 255.825 250.99 255.536C249.287 254.912 248.153 253.293 248.153 251.48V243.806C248.153 241.42 246.219 239.487 243.833 239.487H237.011C234.625 239.487 232.691 241.42 232.691 243.806V251.48C232.691 253.294 231.558 254.912 229.855 255.536C229.066 255.825 228.293 256.146 227.536 256.496C225.878 257.265 223.919 256.942 222.627 255.649L217.2 250.222C215.513 248.535 212.778 248.535 211.091 250.222L206.267 255.046C204.58 256.733 204.58 259.468 206.267 261.155L211.694 266.582C212.987 267.874 213.31 269.832 212.542 271.49C212.191 272.247 211.87 273.021 211.581 273.809C210.956 275.512 209.338 276.646 207.525 276.646H199.852C197.465 276.646 195.532 278.579 195.532 280.965V287.787C195.532 290.173 197.465 292.107 199.852 292.107H207.525C209.339 292.107 210.957 293.241 211.581 294.944C211.87 295.732 212.191 296.505 212.542 297.263C213.31 298.921 212.987 300.879 211.694 302.171L206.267 307.597C204.58 309.284 204.58 312.02 206.267 313.707L211.091 318.53C212.778 320.217 215.513 320.217 217.2 318.53L222.627 313.103C223.919 311.811 225.878 311.488 227.536 312.256C228.292 312.607 229.066 312.927 229.854 313.217C231.557 313.841 232.691 315.459 232.691 317.272V324.946C232.691 327.332 234.624 329.266 237.01 329.266H243.832C246.218 329.266 248.152 327.332 248.152 324.946V317.272C248.152 315.458 249.286 313.841 250.989 313.217C251.778 312.927 252.551 312.607 253.307 312.256C254.965 311.488 256.923 311.811 258.216 313.103L263.643 318.53C265.33 320.217 268.065 320.217 269.752 318.53L274.575 313.707C276.262 312.02 276.262 309.284 274.575 307.597L269.149 302.171C267.857 300.879 267.534 298.921 268.302 297.263C268.653 296.506 268.973 295.732 269.263 294.944C269.887 293.241 271.505 292.107 273.318 292.107H280.992C283.378 292.107 285.312 290.173 285.312 287.787V280.965C285.313 278.58 283.379 276.646 280.993 276.646ZM240.423 307.491C227.657 307.491 217.308 297.142 217.308 284.377C217.308 271.611 227.657 261.262 240.423 261.262C253.188 261.262 263.537 271.611 263.537 284.377C263.538 297.142 253.189 307.491 240.423 307.491Z" fill="white"/>
</g>
<path d="M160.979 322.604H155.812C153.573 322.604 151.751 320.783 151.751 318.544V312.732C151.751 311.695 151.095 310.757 150.119 310.399C149.51 310.177 148.899 309.923 148.304 309.647C147.345 309.203 146.208 309.398 145.474 310.131L141.364 314.241C140.597 315.009 139.578 315.431 138.493 315.431C137.409 315.431 136.389 315.009 135.622 314.241L131.969 310.587C131.202 309.82 130.779 308.801 130.779 307.716C130.779 306.632 131.202 305.612 131.969 304.846L136.079 300.736C136.812 300.001 137.007 298.865 136.563 297.906C136.288 297.313 136.035 296.703 135.81 296.089C135.452 295.113 134.515 294.457 133.478 294.457H127.665C125.426 294.457 123.605 292.635 123.605 290.397V285.23C123.605 282.991 125.427 281.17 127.665 281.17H133.478C134.515 281.17 135.452 280.515 135.809 279.538C136.036 278.921 136.289 278.31 136.562 277.722C137.006 276.763 136.812 275.626 136.078 274.892L131.968 270.781C131.201 270.015 130.779 268.995 130.779 267.911C130.779 266.826 131.201 265.807 131.968 265.039L135.621 261.385C137.204 259.803 139.78 259.803 141.363 261.385L145.473 265.496C146.207 266.23 147.343 266.425 148.303 265.979C148.891 265.707 149.502 265.454 150.119 265.227C151.096 264.869 151.751 263.931 151.751 262.895V257.082C151.751 254.843 153.572 253.022 155.812 253.022H160.979C163.217 253.022 165.039 254.844 165.039 257.082V262.895C165.039 263.932 165.694 264.869 166.671 265.227C167.289 265.454 167.9 265.707 168.487 265.979C169.447 266.424 170.583 266.229 171.317 265.496L175.427 261.385C177.01 259.803 179.585 259.803 181.168 261.385L184.822 265.039C185.589 265.807 186.011 266.826 186.011 267.911C186.011 268.995 185.589 270.015 184.822 270.781L180.712 274.892C179.978 275.626 179.784 276.763 180.228 277.723C180.501 278.31 180.754 278.921 180.981 279.539C181.339 280.515 182.276 281.17 183.313 281.17H189.125C191.364 281.17 193.185 282.991 193.185 285.23V290.397C193.185 292.636 191.363 294.457 189.125 294.457H183.313C182.276 294.457 181.339 295.113 180.981 296.089C180.755 296.702 180.502 297.314 180.228 297.906C179.784 298.865 179.978 300.001 180.712 300.736L184.822 304.846C185.589 305.613 186.011 306.633 186.011 307.716C186.011 308.801 185.589 309.82 184.822 310.587L181.168 314.241C180.401 315.009 179.382 315.431 178.297 315.431C177.213 315.431 176.194 315.009 175.427 314.241L171.317 310.131C170.583 309.397 169.445 309.203 168.487 309.647C167.89 309.924 167.278 310.177 166.671 310.4C165.695 310.757 165.039 311.695 165.039 312.732V318.544C165.039 320.782 163.217 322.604 160.979 322.604ZM147.236 307.835C147.822 307.835 148.413 307.96 148.967 308.216C149.523 308.474 150.093 308.71 150.662 308.918C152.256 309.504 153.328 311.036 153.328 312.731V318.544C153.328 319.913 154.443 321.027 155.813 321.027H160.98C162.349 321.027 163.463 319.913 163.463 318.544V312.731C163.463 311.036 164.534 309.504 166.128 308.919C166.697 308.711 167.267 308.474 167.825 308.216C169.382 307.497 171.234 307.817 172.432 309.016L176.542 313.126C177.48 314.065 179.116 314.065 180.055 313.126L183.709 309.472C184.178 309.002 184.436 308.379 184.436 307.716C184.436 307.052 184.178 306.428 183.709 305.959L179.598 301.849C178.399 300.65 178.078 298.799 178.799 297.242C179.055 296.689 179.291 296.119 179.502 295.547C180.087 293.952 181.619 292.88 183.314 292.88H189.126C190.496 292.88 191.61 291.766 191.61 290.396V285.229C191.61 283.86 190.496 282.745 189.126 282.745H183.314C181.619 282.745 180.087 281.675 179.502 280.08C179.29 279.504 179.054 278.934 178.799 278.385C178.078 276.828 178.4 274.977 179.598 273.777L183.709 269.666C184.178 269.197 184.436 268.573 184.436 267.911C184.436 267.248 184.178 266.623 183.709 266.153L180.055 262.499C179.086 261.531 177.51 261.531 176.542 262.499L172.432 266.61C171.233 267.81 169.381 268.131 167.824 267.409C167.276 267.156 166.705 266.919 166.128 266.706C164.534 266.122 163.463 264.59 163.463 262.895V257.082C163.463 255.712 162.349 254.598 160.98 254.598H155.813C154.443 254.598 153.328 255.712 153.328 257.082V262.895C153.328 264.59 152.257 266.122 150.663 266.706C150.086 266.919 149.515 267.155 148.967 267.409C147.409 268.131 145.558 267.811 144.36 266.61L140.25 262.499C139.281 261.531 137.704 261.531 136.736 262.499L133.083 266.153C132.614 266.623 132.355 267.247 132.355 267.911C132.355 268.574 132.614 269.197 133.083 269.666L137.193 273.777C138.392 274.977 138.713 276.828 137.992 278.384C137.738 278.933 137.501 279.504 137.289 280.08C136.705 281.675 135.173 282.745 133.478 282.745H127.665C126.295 282.745 125.181 283.86 125.181 285.229V290.396C125.181 291.766 126.295 292.88 127.665 292.88H133.478C135.173 292.88 136.704 293.951 137.289 295.546C137.5 296.119 137.736 296.689 137.992 297.242C138.714 298.799 138.392 300.65 137.193 301.849L133.083 305.959C132.614 306.429 132.355 307.053 132.355 307.716C132.355 308.378 132.614 309.002 133.083 309.472L136.736 313.126C137.674 314.064 139.31 314.065 140.25 313.126L144.36 309.016C145.132 308.244 146.175 307.835 147.236 307.835ZM158.396 306.11C148.307 306.11 140.099 297.902 140.099 287.813C140.099 277.724 148.307 269.517 158.396 269.517C168.484 269.517 176.692 277.724 176.692 287.813C176.692 297.902 168.484 306.11 158.396 306.11ZM158.396 271.093C149.176 271.093 141.675 278.593 141.675 287.813C141.675 297.033 149.176 304.534 158.396 304.534C167.615 304.534 175.116 297.033 175.116 287.813C175.116 278.593 167.615 271.093 158.396 271.093Z" fill="white"/>
</g>
<g opacity="0.81">
<path d="M328.149 237.127H317.876C317.44 237.127 317.088 236.774 317.088 236.339C317.088 235.903 317.44 235.551 317.876 235.551H328.149C328.584 235.551 328.937 235.903 328.937 236.339C328.937 236.774 328.583 237.127 328.149 237.127Z" fill="white"/>
<path d="M328.149 254.054H317.876C317.44 254.054 317.088 253.702 317.088 253.266C317.088 252.831 317.44 252.478 317.876 252.478H328.149C328.584 252.478 328.937 252.831 328.937 253.266C328.937 253.702 328.583 254.054 328.149 254.054Z" fill="white"/>
<path d="M335.41 271.151H272.95C271.772 271.151 270.813 270.192 270.813 269.014V216.794C270.813 215.616 271.772 214.658 272.95 214.658H335.41C336.588 214.658 337.547 215.616 337.547 216.794V269.014C337.547 270.192 336.589 271.151 335.41 271.151ZM272.951 216.234C272.641 216.234 272.39 216.485 272.39 216.794V269.014C272.39 269.324 272.641 269.575 272.951 269.575H335.411C335.72 269.575 335.972 269.324 335.972 269.014V216.794C335.972 216.485 335.72 216.234 335.411 216.234H272.951Z" fill="white"/>
<path opacity="0.66" d="M335.41 271.151H272.95C271.772 271.151 270.813 270.192 270.813 269.014V216.794C270.813 215.616 271.772 214.658 272.95 214.658H335.41C336.588 214.658 337.547 215.616 337.547 216.794V269.014C337.547 270.192 336.589 271.151 335.41 271.151ZM272.951 216.234C272.641 216.234 272.39 216.485 272.39 216.794V269.014C272.39 269.324 272.641 269.575 272.951 269.575H335.411C335.72 269.575 335.972 269.324 335.972 269.014V216.794C335.972 216.485 335.72 216.234 335.411 216.234H272.951Z" fill="white"/>
<path d="M328.148 228.911H279.195C278.76 228.911 278.407 228.559 278.407 228.123C278.407 227.687 278.76 227.335 279.195 227.335H328.148C328.584 227.335 328.936 227.687 328.936 228.123C328.936 228.559 328.583 228.911 328.148 228.911Z" fill="white"/>
<path d="M328.148 245.342H279.195C278.76 245.342 278.407 244.989 278.407 244.554C278.407 244.118 278.76 243.766 279.195 243.766H328.148C328.584 243.766 328.936 244.118 328.936 244.554C328.936 244.988 328.583 245.342 328.148 245.342Z" fill="white"/>
<path d="M305.588 237.127H279.195C278.76 237.127 278.407 236.774 278.407 236.339C278.407 235.903 278.76 235.551 279.195 235.551H305.588C306.024 235.551 306.376 235.903 306.376 236.339C306.376 236.774 306.023 237.127 305.588 237.127Z" fill="white"/>
<path d="M305.588 254.054H279.195C278.76 254.054 278.407 253.702 278.407 253.266C278.407 252.831 278.76 252.478 279.195 252.478H305.588C306.024 252.478 306.376 252.831 306.376 253.266C306.376 253.702 306.023 254.054 305.588 254.054Z" fill="white"/>
<path d="M296.994 261.897H279.195C278.759 261.897 278.407 261.544 278.407 261.109C278.407 260.673 278.759 260.321 279.195 260.321H296.994C297.43 260.321 297.782 260.673 297.782 261.109C297.782 261.544 297.43 261.897 296.994 261.897Z" fill="white"/>
</g>
<g opacity="0.81">
<path d="M128.285 150.949H116.63C116.195 150.949 115.842 150.596 115.842 150.161C115.842 149.726 116.195 149.373 116.63 149.373H128.285C128.72 149.373 129.073 149.726 129.073 150.161C129.073 150.596 128.72 150.949 128.285 150.949Z" fill="white"/>
<path d="M128.285 170.155H116.63C116.195 170.155 115.842 169.802 115.842 169.367C115.842 168.932 116.195 168.579 116.63 168.579H128.285C128.72 168.579 129.073 168.932 129.073 169.367C129.073 169.802 128.72 170.155 128.285 170.155Z" fill="white"/>
<path d="M136.705 189.55H65.4788C64.3007 189.55 63.3425 188.592 63.3425 187.414V127.806C63.3425 126.628 64.3007 125.67 65.4788 125.67H136.705C137.883 125.67 138.842 126.628 138.842 127.806V187.414C138.842 188.592 137.883 189.55 136.705 189.55ZM65.4788 127.246C65.1699 127.246 64.9185 127.497 64.9185 127.806V187.414C64.9185 187.723 65.1699 187.974 65.4788 187.974H136.705C137.014 187.974 137.266 187.723 137.266 187.414V127.806C137.266 127.497 137.014 127.246 136.705 127.246H65.4788Z" fill="white"/>
<path opacity="0.66" d="M136.705 189.55H65.4788C64.3007 189.55 63.3425 188.592 63.3425 187.414V127.806C63.3425 126.628 64.3007 125.67 65.4788 125.67H136.705C137.883 125.67 138.842 126.628 138.842 127.806V187.414C138.842 188.592 137.883 189.55 136.705 189.55ZM65.4788 127.246C65.1699 127.246 64.9185 127.497 64.9185 127.806V187.414C64.9185 187.723 65.1699 187.974 65.4788 187.974H136.705C137.014 187.974 137.266 187.723 137.266 187.414V127.806C137.266 127.497 137.014 127.246 136.705 127.246H65.4788Z" fill="white"/>
<path d="M128.285 141.628H72.7458C72.3108 141.628 71.9578 141.275 71.9578 140.84C71.9578 140.405 72.3108 140.052 72.7458 140.052H128.285C128.72 140.052 129.073 140.405 129.073 140.84C129.073 141.275 128.72 141.628 128.285 141.628Z" fill="white"/>
<path d="M128.285 160.27H72.7458C72.3108 160.27 71.9578 159.917 71.9578 159.482C71.9578 159.047 72.3108 158.694 72.7458 158.694H128.285C128.72 158.694 129.073 159.047 129.073 159.482C129.073 159.917 128.72 160.27 128.285 160.27Z" fill="white"/>
<path d="M102.689 150.949H72.7458C72.3108 150.949 71.9578 150.596 71.9578 150.161C71.9578 149.726 72.3108 149.373 72.7458 149.373H102.689C103.124 149.373 103.477 149.726 103.477 150.161C103.477 150.596 103.124 150.949 102.689 150.949Z" fill="white"/>
<path d="M102.689 170.155H72.7458C72.3108 170.155 71.9578 169.802 71.9578 169.367C71.9578 168.932 72.3108 168.579 72.7458 168.579H102.689C103.124 168.579 103.477 168.932 103.477 169.367C103.477 169.802 103.124 170.155 102.689 170.155Z" fill="white"/>
<path d="M92.9391 179.053H72.7458C72.3108 179.053 71.9578 178.7 71.9578 178.265C71.9578 177.83 72.3108 177.477 72.7458 177.477H92.9398C93.3748 177.477 93.7278 177.83 93.7278 178.265C93.7271 178.7 93.3748 179.053 92.9391 179.053Z" fill="white"/>
</g>
<path d="M333.476 124.519H327.262H302.295H298.057C296.473 124.519 295.063 125.676 294.543 127.402L293.37 131.294C292.85 133.02 291.44 134.177 289.856 134.177H239.152C237.097 134.177 235.431 136.099 235.431 138.47V195.878C235.431 198.249 237.097 200.171 239.152 200.171H239.403H327.261H333.475C335.669 200.171 337.447 198.249 337.447 195.878V143.03V134.178V128.813C337.448 126.441 335.67 124.519 333.476 124.519Z" fill="#124BC7"/>
<path d="M297.291 134.782L298.544 130.889C299.099 129.163 300.604 128.007 302.295 128.007H333.477C335.67 128.007 337.448 129.929 337.448 132.3V137.664V146.517V199.365C337.448 201.736 335.67 203.658 333.477 203.658H239.404C237.21 203.658 235.432 201.736 235.432 199.365V141.957C235.432 139.586 237.211 137.664 239.404 137.664H293.539C295.23 137.664 296.735 136.508 297.291 134.782Z" fill="#2563EB"/>
<path opacity="0.12" d="M299.598 138.738L300.778 135.07C301.301 133.443 302.72 132.353 304.314 132.353H333.704C335.771 132.353 337.448 134.164 337.448 136.399V141.456V149.799V199.611C337.448 201.846 335.771 203.658 333.704 203.658H245.035C242.967 203.658 241.291 201.846 241.291 199.611V145.501C241.291 143.266 242.967 141.455 245.035 141.455H296.061C297.655 141.455 299.073 140.365 299.598 138.738Z" fill="white"/>
<path d="M326.701 198.819H303.432C302.996 198.819 302.644 198.467 302.644 198.031C302.644 197.596 302.996 197.243 303.432 197.243H326.701C328.202 197.243 329.423 196.021 329.423 194.519V176.06C329.423 175.625 329.775 175.272 330.211 175.272C330.647 175.272 330.999 175.625 330.999 176.06V194.519C330.999 196.89 329.07 198.819 326.701 198.819Z" fill="white"/>
<path d="M55.6548 189.81H61.9092H87.0377H91.3023C92.8957 189.81 94.3149 191.111 94.8389 193.052L96.0201 197.431C96.5433 199.373 97.9625 200.674 99.5567 200.674H150.588C152.656 200.674 154.332 202.836 154.332 205.503V270.081C154.332 272.747 152.656 274.91 150.588 274.91H150.335H61.9084H55.654C53.446 274.91 51.6565 272.747 51.6565 270.081V210.632V200.675V194.639C51.6573 191.971 53.4468 189.81 55.6548 189.81Z" fill="#F28393"/>
<path opacity="0.12" d="M92.0737 201.355L90.8129 196.976C90.2543 195.034 88.7389 193.733 87.0376 193.733H55.6547C53.4468 193.733 51.6572 195.895 51.6572 198.562V204.596V214.555V274.003C51.6572 276.67 53.4468 278.832 55.6547 278.832H150.334C152.542 278.832 154.331 276.67 154.331 274.003V209.426C154.331 206.759 152.542 204.597 150.334 204.597H95.8491C94.1478 204.597 92.6324 203.296 92.0737 201.355Z" fill="white"/>
<path opacity="0.12" d="M89.7524 205.804L88.564 201.677C88.0369 199.847 86.609 198.621 85.0054 198.621H55.4247C53.3436 198.621 51.6565 200.659 51.6565 203.172V208.861V218.248V274.282C51.6565 276.795 53.3436 278.833 55.4247 278.833H144.666C146.747 278.833 148.434 276.795 148.434 274.282V213.413C148.434 210.899 146.747 208.861 144.666 208.861H93.3102C91.7074 208.861 90.2787 207.634 89.7524 205.804Z" fill="white"/>
<path d="M58.9409 217.53C58.5516 217.53 58.2356 217.178 58.2356 216.742V205.804C58.2356 204.322 59.3136 203.117 60.639 203.117H75.3305C75.7197 203.117 76.0357 203.47 76.0357 203.905C76.0357 204.341 75.7197 204.693 75.3305 204.693H60.6398C60.0921 204.693 59.6461 205.191 59.6461 205.804V216.742C59.6461 217.178 59.3301 217.53 58.9409 217.53Z" fill="white"/>
<path opacity="0.36" d="M258.718 255.26L151.294 290.752C148.667 291.62 145.834 290.194 144.966 287.567L109.474 180.143C108.605 177.516 110.032 174.683 112.659 173.815L220.082 138.322C222.709 137.454 225.542 138.88 226.41 141.508L261.903 248.931C262.771 251.559 261.345 254.392 258.718 255.26Z" fill="#4C65BA"/>
<path d="M250.823 251.286L143.399 286.779C140.771 287.647 137.939 286.221 137.07 283.593L101.578 176.17C100.71 173.543 102.136 170.71 104.763 169.842L212.186 134.349C214.813 133.481 217.646 134.907 218.515 137.534L254.007 244.959C254.875 247.585 253.449 250.418 250.823 251.286Z" fill="white"/>
<path d="M210.202 146.05L113.184 178.103L145.237 275.12L242.255 243.067L210.202 146.05Z" fill="#C5D9FF"/>
<path opacity="0.47" d="M144.419 275.945L137.162 253.98L147.778 228.393C149.247 224.852 153.116 223.038 156.78 224.175L176.429 230.278C177.591 230.641 178.84 230.163 179.465 229.121L195.825 201.893C199.299 196.11 206.594 193.759 212.791 196.426L230.808 204.176L230.975 204.682L243.683 243.149L242.561 243.52L144.419 275.945ZM139.682 254.073L145.923 272.959L240.698 241.646L228.897 205.929L211.856 198.597C206.738 196.395 200.719 198.337 197.851 203.111L181.491 230.339C180.303 232.318 177.934 233.223 175.728 232.537L156.078 226.433C153.589 225.66 150.959 226.893 149.96 229.301L139.682 254.073Z" fill="white"/>
<path opacity="0.47" d="M176.811 200.291C171.533 200.291 166.606 196.939 164.861 191.66C162.686 185.076 166.273 177.95 172.856 175.775C179.439 173.603 186.565 177.187 188.741 183.77C190.916 190.354 187.33 197.48 180.747 199.655C179.442 200.086 178.116 200.291 176.811 200.291ZM176.794 177.503C175.734 177.503 174.659 177.67 173.599 178.02C168.253 179.785 165.34 185.572 167.107 190.918C168.873 196.264 174.661 199.176 180.005 197.409C185.351 195.643 188.263 189.857 186.497 184.511C185.081 180.225 181.079 177.503 176.794 177.503Z" fill="white"/>
<path opacity="0.36" d="M291.057 274.602H207.194C204.427 274.602 202.184 272.359 202.184 269.592V185.729C202.184 182.962 204.427 180.719 207.194 180.719H291.057C293.824 180.719 296.067 182.962 296.067 185.729V269.592C296.067 272.359 293.824 274.602 291.057 274.602Z" fill="#4C65BA"/>
<path d="M286.292 269.837H202.429C199.662 269.837 197.419 267.594 197.419 264.827V180.964C197.419 178.197 199.662 175.954 202.429 175.954H286.292C289.059 175.954 291.302 178.197 291.302 180.964V264.827C291.302 267.594 289.059 269.837 286.292 269.837Z" fill="white"/>
<path opacity="0.39" d="M283.252 183.949H205.361V261.841H283.252V183.949Z" fill="#F7A9B4"/>
<path opacity="0.47" d="M284.543 262.52H204.287V244.501L218.157 228.439C220.166 226.117 223.562 225.712 226.059 227.494L238.821 236.61C239.468 237.073 240.345 237.034 240.949 236.514L259.302 220.719C263.306 217.271 269.308 217.316 273.26 220.822L284.542 230.825V262.52H284.543ZM206.651 260.156H282.179V231.889L271.692 222.59C268.62 219.867 263.957 219.832 260.845 222.51L242.491 238.305C241.059 239.537 238.986 239.633 237.448 238.534L224.685 229.418C223.187 228.348 221.149 228.593 219.946 229.984L206.651 245.379V260.156Z" fill="white"/>
<path opacity="0.47" d="M249.107 215.986C243.667 215.986 239.241 211.561 239.241 206.12C239.241 200.679 243.666 196.253 249.107 196.253C254.548 196.253 258.974 200.679 258.974 206.12C258.974 211.561 254.548 215.986 249.107 215.986ZM249.107 198.617C244.97 198.617 241.605 201.983 241.605 206.12C241.605 210.257 244.97 213.622 249.107 213.622C253.244 213.622 256.61 210.257 256.61 206.12C256.61 201.983 253.244 198.617 249.107 198.617Z" fill="white"/>
<path opacity="0.36" d="M231.188 282.645L183.78 300.408C181.189 301.379 178.302 300.065 177.331 297.474L159.568 250.066C158.597 247.475 159.91 244.587 162.501 243.617L209.91 225.854C212.501 224.883 215.388 226.196 216.359 228.787L234.122 276.196C235.092 278.787 233.779 281.675 231.188 282.645Z" fill="#4C65BA"/>
<path d="M227.226 280.843L179.818 298.606C177.227 299.576 174.339 298.263 173.369 295.672L155.605 248.263C154.635 245.673 155.948 242.785 158.539 241.814L205.948 224.051C208.539 223.081 211.426 224.394 212.397 226.985L230.16 274.394C231.13 276.985 229.816 279.872 227.226 280.843Z" fill="white"/>
<path d="M207.583 228.942L160.467 246.598L178.123 293.714L225.239 276.058L207.583 228.942Z" fill="#599AF2"/>
<path opacity="0.47" d="M177.377 294.92L173.091 283.482L177.896 270.476C178.659 268.412 180.837 267.287 182.962 267.855L192.749 270.476C193.058 270.559 193.384 270.421 193.538 270.139L201.06 256.424C202.8 253.25 206.662 251.837 210.044 253.133L219.311 256.695L226.708 276.436L177.377 294.92ZM175.614 283.475L178.762 291.877L223.665 275.052L217.471 258.519L209.197 255.34C206.914 254.463 204.308 255.418 203.134 257.56L195.612 271.275C194.932 272.514 193.504 273.126 192.137 272.759L182.35 270.138C181.413 269.882 180.45 270.383 180.114 271.294L175.614 283.475Z" fill="white"/>
<path opacity="0.47" d="M191.959 256.898C189.207 256.898 186.612 255.213 185.591 252.489C184.277 248.981 186.061 245.059 189.568 243.745C193.073 242.43 196.996 244.215 198.311 247.722C199.625 251.229 197.841 255.151 194.334 256.466C193.553 256.759 192.75 256.898 191.959 256.898ZM191.947 245.677C191.431 245.677 190.908 245.767 190.398 245.958C188.112 246.815 186.948 249.372 187.805 251.658C188.661 253.944 191.219 255.107 193.505 254.252C195.791 253.394 196.955 250.837 196.098 248.551C195.433 246.776 193.74 245.677 191.947 245.677Z" fill="white"/>
</svg>
